<svg id="eyOfdRPgl8m1" xmlns="http://www.w3.org/2000/svg" xmlns:xlink="http://www.w3.org/1999/xlink" viewBox="0 0 973.4614 587.02513" shape-rendering="geometricPrecision" text-rendering="geometricPrecision"><g id="eyOfdRPgl8m2"><path id="eyOfdRPgl8m3" d="M675.14672,628.10046C668.800968,628.10046,663.65672,633.244708,663.65672,639.59046C663.65672,645.936212,668.800968,651.08046,675.14672,651.08046C681.492472,651.08046,686.63672,645.936212,686.63672,639.59046L686.63672,639.59046C686.63672,636.543123,685.42617,633.620596,683.271377,631.465803C681.116584,629.31101,678.194057,628.10046,675.14672,628.10046ZM675.14672,646.66146C671.241515,646.66146,668.07572,643.495665,668.07572,639.59046C668.07572,635.685255,671.241515,632.51946,675.14672,632.51946C679.051925,632.51946,682.21772,635.685255,682.21772,639.59046L682.21772,639.59052C682.21767,643.49569,679.05189,646.66143,675.14672,646.66143Z" transform="matrix(1 0 0 1.002755 -193.269 -156.487)" fill="rgb(48,45,45)" stroke="none" stroke-width="1"/><path id="eyOfdRPgl8m4" d="M630.95367,619.26144L675.14667,619.26144L675.14667,663.00044C675.14667,666.179943,672.569173,668.75744,669.38967,668.75744L636.71067,668.75744C633.531167,668.75744,630.95367,666.179943,630.95367,663.00044L630.95367,619.26144Z" transform="matrix(1 0 0 1 -195.40267 -156.487)" fill="rgb(39,37,37)" stroke="none" stroke-width="1"/></g><path id="eyOfdRPgl8m5" d="M778.40266,669.75845L114.16566,669.75845C113.655581,669.70249,113.269369,669.271589,113.269369,668.75845C113.269369,668.245311,113.655581,667.81441,114.16566,667.75845L778.40266,667.75845C778.912739,667.81441,779.298951,668.245311,779.298951,668.75845C779.298951,669.271589,778.912739,669.70249,778.40266,669.75845Z" transform="matrix(1 0 0 1 -113.269 -156.487)" fill="rgb(202,202,202)" stroke="none" stroke-width="1"/><polygon id="eyOfdRPgl8m6" points="89.41,494.381 85.302,514.694 161.695,540.208 167.759,510.228 89.41,494.381" fill="rgb(255,182,182)" stroke="none" stroke-width="1"/><path id="eyOfdRPgl8m7" d="M210.35961,647.029L202.26842,687.03193L202.26809,687.03355C199.419088,701.112208,185.69733,710.216316,171.61832,707.36905L170.78991,707.20145L184.03775,641.70516Z" transform="matrix(1 0 0 1 -113.269 -156.487)" fill="rgb(47,46,65)" stroke="none" stroke-width="1"/><circle id="eyOfdRPgl8m8" r="51.871" transform="matrix(1 0 0 1 175.979 162.713)" fill="rgb(189,130,130)" stroke="none" stroke-width="1"/><path id="eyOfdRPgl8m9" d="M337.69671,274.45043C329.941597,261.857282,317.802325,252.577864,303.61566,248.39843L297.24766,253.04543L297.24766,247.01143C293.840623,246.489969,290.3922,246.28909,286.94766,246.41143L281.45366,251.38243L281.45366,246.82443C265.008363,248.868022,250.167044,257.695873,240.52166,271.17143C228.59066,288.37143,226.57666,312.30043,238.31166,329.63843C241.53266,319.73843,245.44266,310.44943,248.66466,300.55043C251.196494,300.895556,253.762599,300.907995,256.29766,300.58743L260.21666,291.44243L261.31166,300.20043C273.45966,299.14243,291.47766,296.81843,302.99366,294.68943L301.87366,287.97043L308.57366,293.55343C312.10166,292.74143,314.19666,292.00443,314.02366,291.44143C322.58866,305.24943,333.07066,314.06843,341.63466,327.87643C344.88769,308.40645,348.63171,292.21742,337.69671,274.45043Z" transform="matrix(1 0 0 0.990273 -113.269 -156.487)" fill="rgb(47,46,65)" stroke="none" stroke-width="1"/><ellipse id="eyOfdRPgl8m10" rx="133.56" ry="37.359" transform="matrix(1 0 0 1 192.856 464.787)" fill="rgb(47,46,65)" stroke="none" stroke-width="1"/><path id="eyOfdRPgl8m11" d="M400.8085,452.58848C399.02481,441.85748,397.18496,430.92048,392.19766,421.25348C388.91982,414.92148,383.71666,408.88748,376.70254,407.63548C375.320913,407.512326,373.963067,407.197993,372.66787,406.70148C370.6127,405.71148,342.99453,389.94548,338.60487,387.19948C334.83587,384.84212,328.88612,380.47725,325.88612,380.47725C322.86806,380.41091,311.2953,383.10433,266.12587,379.57344C258.527972,382.623283,251.170435,386.240743,244.11562,390.39516C243.97011,390.29927,197.23378,415.3965,195.47792,415.33046C192.15272,415.19046,189.06192,417.31946,187.15565,420.00051C185.24989,422.68151,184.35585,426.00051,183.41981,429.20951C193.62781,451.94251,202.96767,474.70451,213.17665,497.43751C213.654653,498.293762,213.908603,499.256891,213.91493,500.23751C213.70978,501.255196,213.275455,502.212763,212.64493,503.03751C207.63858,511.07951,207.79776,521.19451,208.34464,530.64651C208.892,540.09851,209.56876,550.08251,205.34464,558.55451C204.19571,560.88051,202.70157,563.00951,201.6088,565.33551C199.04972,570.60351,198.12491,587.45251,199.61954,593.11251L386.88614,598.47731C382.85977,587.40928,400.8085,452.58848,400.8085,452.58848Z" transform="matrix(1 0 0 1 -113.269 -156.487)" fill="rgb(72,187,120)" stroke="none" stroke-width="1"/><path id="eyOfdRPgl8m12" d="M167.23268,498.44541C166.859014,501.148375,166.821394,503.887202,167.12068,506.59941L169.80468,545.14541C170.05668,548.77841,170.30468,552.40241,170.64568,556.02641C171.28968,563.05941,172.25168,570.03641,173.44568,577.00341C173.501828,579.063083,175.2149,580.688466,177.27468,580.63641C189.08968,583.13641,201.29668,583.03641,213.35468,582.35541C231.75468,581.32841,278.82868,579.38541,281.70468,575.64941C284.58068,571.91341,282.90468,565.87041,279.15468,562.84941C275.40468,559.82841,213.28368,552.46341,213.28368,552.46341C213.89068,547.65341,215.72168,543.12341,217.45868,538.55641C220.57868,530.45641,223.49268,522.09041,223.54868,513.41341C223.60468,504.73641,220.33568,495.61341,213.22768,490.64241C207.38068,486.56141,199.85268,485.80441,192.72768,485.97241C187.54368,486.12141,178.58668,484.87941,173.85168,486.90641C170.10469,488.55644,167.93268,494.77647,167.23268,498.44541Z" transform="matrix(1 0 0 1 -113.269 -156.487)" fill="rgb(189,130,130)" stroke="none" stroke-width="1"/><path id="eyOfdRPgl8m13" d="M401.14067,585.57847C404.25067,584.39247,407.67867,584.82147,411.01267,585.27047C421.74467,586.73647,432.63467,588.24047,442.58167,592.52747C447.25167,594.52747,451.69767,597.19747,454.85467,601.12747C457.65467,604.66747,459.29067,609.00147,460.84167,613.26947L464.42867,623.09547C465.953663,626.786645,467.005028,630.656099,467.55767,634.61147C468.67867,646.37047,460.63667,657.45647,450.52167,663.56547C440.40667,669.67447,428.49867,671.84947,416.89767,674.12847C405.29667,676.40747,393.65067,678.92847,382.09767,681.60047C376.708876,682.998862,371.241512,684.07477,365.72467,684.82247C353.35867,686.22247,340.43267,684.15947,328.68267,688.25047C324.01267,689.88547,319.42667,692.31347,314.58267,693.44347C311.362751,694.120909,308.107276,694.616692,304.83167,694.92847L282.59367,697.46847C278.071622,698.073269,273.519056,698.422491,268.95767,698.51447C259.24467,698.51447,249.68967,696.21447,240.25767,693.91447C239.255439,693.738262,238.301464,693.353265,237.45767,692.78447C235.96367,691.60747,235.63667,689.52447,235.42167,687.63847Q233.99267,675.11347,232.92167,662.56147C232.69767,659.84347,232.52967,656.90147,234.01467,654.61347C235.88267,651.81347,239.52567,650.93347,242.85067,650.39147C256.949895,648.084846,271.232983,647.093584,285.51567,647.43047C290.94167,642.00447,299.88967,641.97647,306.99767,639.02447C309.612534,637.823596,312.143294,636.447463,314.57267,634.90547C327.286693,627.487747,341.494806,622.998476,356.16267,621.76447C359.035272,621.676888,361.889189,621.269712,364.67167,620.55047C370.17167,618.84147,375.18867,614.18947,380.83867,615.32947C381.53867,613.39647,382.02467,610.80847,383.63867,609.48247C384.43867,608.80047,385.43167,608.34347,386.16967,607.61447C387.72967,606.03647,387.86967,603.55147,387.63567,601.34747C387.40167,599.14347,386.87867,596.88347,387.44867,594.73447C387.685757,593.92113,388.034764,593.144698,388.48567,592.42747C391.27767,587.59544,395.50869,585.11143,401.14067,585.57847Z" transform="matrix(1 0 0 1 -113.269 -156.487)" fill="rgb(47,46,65)" stroke="none" stroke-width="1"/><path id="eyOfdRPgl8m14" d="M182.87968,429.90143C181.969989,430.853995,181.264557,431.982413,180.80668,433.21743C173.25706,450.232084,168.797779,468.455234,167.63768,487.03343C167.658039,487.939354,167.449249,488.835743,167.03068,489.63943C166.617901,490.17412,166.158428,490.671074,165.65768,491.12443C164.775974,492.169673,164.345601,493.522362,164.46124,494.884921C164.576879,496.24748,165.229056,497.508295,166.2743,498.39Q166.40163,498.49739,166.53568,498.59642C168.07668,495.69642,171.76568,494.74842,175.04468,494.49642C190.74468,493.25442,206.08068,500.55842,221.82768,500.00742C220.71668,496.16842,219.11868,492.47942,218.21268,488.59442C214.20568,471.34342,224.19968,452.56142,218.07268,435.94542C216.84868,432.62042,214.80368,429.35142,211.58168,427.89442C210.247503,427.356286,208.85138,426.986764,207.42568,426.79442C203.44668,426.07542,195.52568,423.00242,191.67868,424.23542C190.25868,424.69342,189.69868,426.02842,188.52168,426.83542C186.73368,427.97745,184.36169,428.39743,182.87968,429.90143Z" transform="matrix(1 0 0 1 -113.269 -156.487)" fill="rgb(72,187,120)" stroke="none" stroke-width="1"/><path id="eyOfdRPgl8m15" d="M400.92057,486.90641C396.18557,484.87941,387.22857,486.12141,382.04457,485.97241C374.91957,485.80441,367.39157,486.56141,361.54457,490.64241C354.43657,495.61341,351.16757,504.73641,351.22357,513.41341C351.27957,522.09041,354.19357,530.45641,357.31357,538.55641C359.05057,543.12341,360.88157,547.65341,361.48857,552.46341C361.48857,552.46341,299.36757,559.82841,295.61757,562.84941C291.86757,565.87041,290.19157,571.91341,293.06757,575.64941C295.94357,579.38541,385.68257,583.13641,397.49757,580.63641C399.55735,580.688466,401.270422,579.063083,401.32657,577.00341C402.52057,570.03641,403.48257,563.05941,404.12657,556.02641C404.46757,552.40241,404.71557,548.77841,404.96757,545.14541L407.65157,506.59941C407.950846,503.887201,407.913226,501.148376,407.53957,498.44541C406.83959,494.77647,404.66758,488.55644,400.92057,486.90641Z" transform="matrix(1 0 0 1 -112.783496 -155.130554)" fill="rgb(189,130,130)" stroke="none" stroke-width="1"/><path id="eyOfdRPgl8m16" d="M386.25057,426.83542C385.07357,426.02842,384.51357,424.69342,383.09357,424.23542C379.24657,423.00242,371.32557,426.07542,367.34657,426.79442C365.92087,426.986764,364.524748,427.356286,363.19057,427.89442C359.96857,429.35142,357.92357,432.62042,356.69957,435.94542C350.57257,452.56142,360.56657,471.34342,356.55957,488.59442C355.65357,492.47942,354.05557,496.16842,352.94457,500.00742C368.69157,500.55842,384.02757,493.25442,399.72757,494.49642C403.00657,494.74842,406.69557,495.69642,408.23657,498.59642Q408.37057,498.49742,408.49795,498.39C409.543195,497.508296,410.195375,496.247482,410.311015,494.884923C410.426656,493.522364,409.996285,492.169674,409.11458,491.12443C408.613827,490.67108,408.154353,490.174125,407.74158,489.63943C407.323008,488.835744,407.114218,487.939354,407.13458,487.03343C405.974486,468.455233,401.515205,450.232082,393.96558,433.21743C393.507703,431.982413,392.802271,430.853995,391.89258,429.90143C390.41058,428.39743,388.03858,427.97745,386.25057,426.83542Z" transform="matrix(1 0 0 1 -113.269 -156.487)" fill="rgb(72,187,120)" stroke="none" stroke-width="1"/><polygon id="eyOfdRPgl8m17" points="299.243,523.378 296.513,543.921 215.975,543.166 220.005,512.846 299.243,523.378" fill="rgb(189,130,130)" stroke="none" stroke-width="1"/><path id="eyOfdRPgl8m18" d="M433.12244,677.27239L424.31844,743.51256L423.48061,743.40124C409.24185,741.508304,399.23297,728.431842,401.12416,714.19285L401.12438,714.19122L406.50168,673.734Z" transform="matrix(1 0 0 1 -113.269 -156.487)" fill="rgb(47,46,65)" stroke="none" stroke-width="1"/><path id="eyOfdRPgl8m19" d="M223.03869,595.97441C223.03869,596.90841,221.57269,595.97441,221.43869,594.97441C220.41169,587.41841,214.41469,581.18841,207.42869,578.16241C200.44269,575.13641,192.48469,574.97741,184.91969,575.69641C173.47869,576.77941,160.63569,581.16041,156.45169,591.85441C155.46169,594.35441,146.18769,616.61441,147.09269,621.62041C149.53069,634.97641,158.66469,646.39941,169.73269,654.31041C180.80069,662.22141,193.73269,666.94741,206.63269,671.21041C240.738883,682.45887,275.731424,690.816376,311.23969,696.19441C316.99269,697.06341,322.80269,697.86641,328.31269,699.71541C333.24369,701.36841,337.85769,703.84341,342.67769,705.78641C353.88569,710.28641,365.94369,711.89441,377.88869,713.47341C379.92469,713.73541,382.25969,713.92141,383.76369,712.53941C385.70669,710.73941,385.06369,707.59841,384.51069,705.01141C382.483304,695.174546,384.184446,684.935265,389.28369,676.28241C391.28369,672.92041,393.88369,669.47341,393.50569,665.58241C393.05769,661.04341,388.53669,657.83041,384.03469,657.10141C379.53269,656.37241,374.95669,657.44741,370.43469,658.03541C368.885001,658.391347,367.261414,658.230499,365.81169,657.57741C365.139824,657.123921,364.530589,656.583948,363.99969,655.97141C357.610955,649.808331,347.979382,648.462156,340.14569,652.63741C338.47369,653.57141,335.94569,651.48841,334.20569,650.70441L314.56369,641.81241C291.99869,631.60441,269.32169,621.34841,245.44869,614.88541C243.543818,614.510884,241.733435,613.758031,240.12469,612.67141C238.93869,611.73741,238.08869,610.47141,236.99569,609.43041C234.61369,607.17941,231.29569,606.28241,228.44069,604.68541C225.58569,603.08841,222.38468,599.17742,223.03869,595.97441Z" transform="matrix(1 0 0 1 -113.269 -156.487)" fill="rgb(47,46,65)" stroke="none" stroke-width="1"/><circle id="eyOfdRPgl8m20" r="14" transform="matrix(1 0 0 1 160.617 411.99)" fill="rgb(251,190,190)" stroke="none" stroke-width="1"/><circle id="eyOfdRPgl8m21" r="14" transform="matrix(1 0 0 1 191.617 411.99)" fill="rgb(251,190,190)" stroke="none" stroke-width="1"/><path id="eyOfdRPgl8m22" d="M391.30469,600.02441L198.96582,600.02441C194.290234,600.019126,190.501165,596.230276,190.49561,591.55469L190.49561,474.86816C190.501165,470.192574,194.290234,466.403724,198.96582,466.39844L391.30469,466.39844C395.980276,466.403724,399.769345,470.192574,399.7749,474.86816L399.7749,591.55469C399.769345,596.230276,395.980276,600.019126,391.30469,600.02441Z" transform="matrix(1 0 0 1 -113.269 -156.487)" fill="rgb(63,61,86)" stroke="none" stroke-width="1"/><circle id="eyOfdRPgl8m23" r="5.604" transform="matrix(1 0 0 1 181.399 376.724)" fill="rgb(255,255,255)" stroke="none" stroke-width="1"/><path id="eyOfdRPgl8m24" d="M981.29873,366.93967L731.40591,366.93967C728.645795,366.936512,726.409068,364.699785,726.40591,361.93967L726.40591,314.83958L728.40591,314.83958L728.40591,361.93967C728.407718,363.595775,729.749805,364.937862,731.40591,364.93967L981.29873,364.93967C982.954835,364.937862,984.296922,363.595775,984.29873,361.93967L984.29873,314.51048L986.29873,314.51048L986.29873,361.93967C986.295572,364.699785,984.058845,366.936512,981.29873,366.93967Z" transform="matrix(1 0 0 1 -113.269 -156.487)" fill="rgb(63,61,86)" stroke="none" stroke-width="1"/><rect id="eyOfdRPgl8m25" width="587.22" height="2" rx="0" ry="0" transform="matrix(1 0 0 1 371.397 157.352)" fill="rgb(63,61,86)" stroke="none" stroke-width="1"/><circle id="eyOfdRPgl8m26" r="17.202" transform="matrix(1 0 0 1 371.439 158.196)" fill="rgb(72,187,120)" stroke="none" stroke-width="1"/><circle id="eyOfdRPgl8m27" r="17.202" transform="matrix(1 0 0 1 546.244 158.196)" fill="rgb(72,187,120)" stroke="none" stroke-width="1"/><circle id="eyOfdRPgl8m28" r="17.202" transform="matrix(1 0 0 1 664.876 208.757)" fill="rgb(63,61,86)" stroke="none" stroke-width="1"/><circle id="eyOfdRPgl8m29" r="17.202" transform="matrix(1 0 0 1 755.063 208.757)" fill="rgb(204,204,204)" stroke="none" stroke-width="1"/><circle id="eyOfdRPgl8m30" r="17.202" transform="matrix(1 0 0 1 711.36 158.196)" fill="rgb(72,187,120)" stroke="none" stroke-width="1"/><circle id="eyOfdRPgl8m31" r="17.202" transform="matrix(1 0 0 1 956.259 158.196)" fill="rgb(72,187,120)" stroke="none" stroke-width="1"/><circle id="eyOfdRPgl8m32" r="17.202" transform="matrix(1 0 0 1 872.029 158.196)" fill="rgb(72,187,120)" stroke="none" stroke-width="1"/><rect id="eyOfdRPgl8m33" width="31.9065" height="21.9898" rx="0" ry="0" transform="matrix(1 0 0 1 648.539 0)" fill="rgb(63,61,86)" stroke="none" stroke-width="1"/><rect id="eyOfdRPgl8m34" width="31.9065" height="21.9898" rx="0" ry="0" transform="matrix(1 0 0 1 355.612 0)" fill="rgb(72,187,120)" stroke="none" stroke-width="1"/><rect id="eyOfdRPgl8m35" width="31.9065" height="21.9898" rx="0" ry="0" transform="matrix(1 0 0 1 463.685 0)" fill="rgb(204,204,204)" stroke="none" stroke-width="1"/><path id="eyOfdRPgl8m36" d="M538.05142,315.83958C537.499147,315.839552,537.051448,315.391853,537.05142,314.83958L537.05142,265.47727C537.054578,262.717155,539.291305,260.480428,542.05142,260.47727L590.72622,260.47727C591.278505,260.47727,591.72622,260.924985,591.72622,261.47727C591.72622,262.029555,591.278505,262.47727,590.72622,262.47727L542.05142,262.47727C540.395315,262.479078,539.053228,263.821165,539.05142,265.47727L539.05142,314.83958C539.051387,315.391851,538.603691,315.839547,538.05142,315.83958Z" transform="matrix(1 0 0 1 -113.269 -156.487)" fill="rgb(63,61,86)" stroke="none" stroke-width="1"/><circle id="eyOfdRPgl8m37" r="17.202" transform="matrix(1 0 0 1 479.744 104.616)" fill="rgb(230,230,230)" stroke="none" stroke-width="1"/><path id="eyOfdRPgl8m38" d="M923.05142,314.83958L921.05142,314.83958L921.05142,265.47727C921.054578,262.717155,923.291305,260.480428,926.05142,260.47727L974.72622,260.47727L974.72622,262.47727L926.05142,262.47727C924.395315,262.479078,923.053228,263.821165,923.05142,265.47727Z" transform="matrix(1 0 0 1 -113.269 -156.487)" fill="rgb(63,61,86)" stroke="none" stroke-width="1"/><circle id="eyOfdRPgl8m39" r="17.202" transform="matrix(1 0 0 1 863.744 104.616)" fill="rgb(230,230,230)" stroke="none" stroke-width="1"/></svg>